<svg width="104" height="40" viewBox="0 0 104 40" fill="none" xmlns="http://www.w3.org/2000/svg">
<g filter="url(#filter0_d_20521_400)">
<path d="M19 8C19 6.89543 19.8954 6 21 6H99C100.105 6 101 6.89543 101 8V30C101 31.1046 100.105 32 99 32H21C19.8954 32 19 31.1046 19 30V8Z" fill="#111322"/>
</g>
<path d="M42.5057 15V9.18182H44.8011C45.2405 9.18182 45.6155 9.26042 45.9261 9.41761C46.2386 9.57292 46.4763 9.79356 46.6392 10.0795C46.804 10.3636 46.8864 10.6979 46.8864 11.0824C46.8864 11.4687 46.803 11.8011 46.6364 12.0795C46.4697 12.3561 46.2282 12.5682 45.9119 12.7159C45.5975 12.8636 45.2169 12.9375 44.7699 12.9375H43.233V11.9489H44.571C44.8059 11.9489 45.0009 11.9167 45.1562 11.8523C45.3116 11.7879 45.4271 11.6913 45.5028 11.5625C45.5805 11.4337 45.6193 11.2737 45.6193 11.0824C45.6193 10.8892 45.5805 10.7263 45.5028 10.5938C45.4271 10.4612 45.3106 10.3608 45.1534 10.2926C44.9981 10.2225 44.8021 10.1875 44.5653 10.1875H43.7358V15H42.5057ZM45.6477 12.3523L47.0938 15H45.7358L44.321 12.3523H45.6477ZM53.1023 12.0909C53.1023 12.7254 52.982 13.2652 52.7415 13.7102C52.5028 14.1553 52.1771 14.4953 51.7642 14.7301C51.3532 14.9631 50.8911 15.0795 50.3778 15.0795C49.8608 15.0795 49.3968 14.9621 48.9858 14.7273C48.5748 14.4924 48.25 14.1525 48.0114 13.7074C47.7727 13.2623 47.6534 12.7235 47.6534 12.0909C47.6534 11.4564 47.7727 10.9167 48.0114 10.4716C48.25 10.0265 48.5748 9.6875 48.9858 9.45455C49.3968 9.2197 49.8608 9.10227 50.3778 9.10227C50.8911 9.10227 51.3532 9.2197 51.7642 9.45455C52.1771 9.6875 52.5028 10.0265 52.7415 10.4716C52.982 10.9167 53.1023 11.4564 53.1023 12.0909ZM51.8551 12.0909C51.8551 11.6799 51.7936 11.3333 51.6705 11.0511C51.5492 10.7689 51.3778 10.5549 51.1562 10.4091C50.9347 10.2633 50.6752 10.1903 50.3778 10.1903C50.0805 10.1903 49.821 10.2633 49.5994 10.4091C49.3778 10.5549 49.2055 10.7689 49.0824 11.0511C48.9612 11.3333 48.9006 11.6799 48.9006 12.0909C48.9006 12.5019 48.9612 12.8485 49.0824 13.1307C49.2055 13.4129 49.3778 13.6269 49.5994 13.7727C49.821 13.9186 50.0805 13.9915 50.3778 13.9915C50.6752 13.9915 50.9347 13.9186 51.1562 13.7727C51.3778 13.6269 51.5492 13.4129 51.6705 13.1307C51.7936 12.8485 51.8551 12.5019 51.8551 12.0909ZM57.1697 10.8551C57.147 10.6259 57.0495 10.4479 56.8771 10.321C56.7048 10.1941 56.4709 10.1307 56.1754 10.1307C55.9747 10.1307 55.8052 10.1591 55.6669 10.2159C55.5286 10.2708 55.4226 10.3475 55.3487 10.446C55.2768 10.5445 55.2408 10.6562 55.2408 10.7812C55.237 10.8854 55.2588 10.9763 55.3061 11.054C55.3554 11.1316 55.4226 11.1989 55.5078 11.2557C55.593 11.3106 55.6915 11.3589 55.8033 11.4006C55.915 11.4403 56.0343 11.4744 56.1612 11.5028L56.6839 11.6278C56.9377 11.6847 57.1707 11.7604 57.3828 11.8551C57.5949 11.9498 57.7786 12.0663 57.9339 12.2045C58.0893 12.3428 58.2095 12.5057 58.2947 12.6932C58.3819 12.8807 58.4264 13.0956 58.4283 13.3381C58.4264 13.6941 58.3355 14.0028 58.1555 14.2642C57.9775 14.5237 57.7199 14.7254 57.3828 14.8693C57.0476 15.0114 56.6432 15.0824 56.1697 15.0824C55.7 15.0824 55.291 15.0104 54.9425 14.8665C54.5959 14.7225 54.325 14.5095 54.13 14.2273C53.9368 13.9432 53.8355 13.5919 53.826 13.1733H55.0163C55.0296 13.3684 55.0855 13.5312 55.1839 13.6619C55.2843 13.7907 55.4179 13.8883 55.5845 13.9545C55.7531 14.0189 55.9434 14.0511 56.1555 14.0511C56.3639 14.0511 56.5447 14.0208 56.6982 13.9602C56.8535 13.8996 56.9737 13.8153 57.0589 13.7074C57.1442 13.5994 57.1868 13.4754 57.1868 13.3352C57.1868 13.2045 57.148 13.0947 57.0703 13.0057C56.9946 12.9167 56.8828 12.8409 56.7351 12.7784C56.5893 12.7159 56.4103 12.6591 56.1982 12.608L55.5646 12.4489C55.0741 12.3295 54.6868 12.143 54.4027 11.8892C54.1186 11.6354 53.9775 11.2936 53.9794 10.8636C53.9775 10.5114 54.0713 10.2036 54.2607 9.94034C54.4519 9.67708 54.7143 9.47159 55.0476 9.32386C55.3809 9.17614 55.7597 9.10227 56.1839 9.10227C56.6158 9.10227 56.9927 9.17614 57.3146 9.32386C57.6385 9.47159 57.8904 9.67708 58.0703 9.94034C58.2502 10.2036 58.343 10.5085 58.3487 10.8551H57.1697ZM62.4119 10.8551C62.3892 10.6259 62.2917 10.4479 62.1193 10.321C61.947 10.1941 61.7131 10.1307 61.4176 10.1307C61.2169 10.1307 61.0473 10.1591 60.9091 10.2159C60.7708 10.2708 60.6648 10.3475 60.5909 10.446C60.5189 10.5445 60.483 10.6562 60.483 10.7812C60.4792 10.8854 60.5009 10.9763 60.5483 11.054C60.5975 11.1316 60.6648 11.1989 60.75 11.2557C60.8352 11.3106 60.9337 11.3589 61.0455 11.4006C61.1572 11.4403 61.2765 11.4744 61.4034 11.5028L61.9261 11.6278C62.1799 11.6847 62.4129 11.7604 62.625 11.8551C62.8371 11.9498 63.0208 12.0663 63.1761 12.2045C63.3314 12.3428 63.4517 12.5057 63.5369 12.6932C63.6241 12.8807 63.6686 13.0956 63.6705 13.3381C63.6686 13.6941 63.5777 14.0028 63.3977 14.2642C63.2197 14.5237 62.9621 14.7254 62.625 14.8693C62.2898 15.0114 61.8854 15.0824 61.4119 15.0824C60.9422 15.0824 60.5331 15.0104 60.1847 14.8665C59.8381 14.7225 59.5672 14.5095 59.3722 14.2273C59.179 13.9432 59.0777 13.5919 59.0682 13.1733H60.2585C60.2718 13.3684 60.3277 13.5312 60.4261 13.6619C60.5265 13.7907 60.66 13.8883 60.8267 13.9545C60.9953 14.0189 61.1856 14.0511 61.3977 14.0511C61.6061 14.0511 61.7869 14.0208 61.9403 13.9602C62.0956 13.8996 62.2159 13.8153 62.3011 13.7074C62.3864 13.5994 62.429 13.4754 62.429 13.3352C62.429 13.2045 62.3902 13.0947 62.3125 13.0057C62.2367 12.9167 62.125 12.8409 61.9773 12.7784C61.8314 12.7159 61.6525 12.6591 61.4403 12.608L60.8068 12.4489C60.3163 12.3295 59.929 12.143 59.6449 11.8892C59.3608 11.6354 59.2197 11.2936 59.2216 10.8636C59.2197 10.5114 59.3134 10.2036 59.5028 9.94034C59.6941 9.67708 59.9564 9.47159 60.2898 9.32386C60.6231 9.17614 61.0019 9.10227 61.4261 9.10227C61.858 9.10227 62.2348 9.17614 62.5568 9.32386C62.8807 9.47159 63.1326 9.67708 63.3125 9.94034C63.4924 10.2036 63.5852 10.5085 63.5909 10.8551H62.4119ZM64.4979 15V9.18182H65.728V11.5824H68.2251V9.18182H69.4524V15H68.2251V12.5966H65.728V15H64.4979ZM75.8132 12.0909C75.8132 12.7254 75.6929 13.2652 75.4524 13.7102C75.2138 14.1553 74.888 14.4953 74.4751 14.7301C74.0642 14.9631 73.602 15.0795 73.0888 15.0795C72.5717 15.0795 72.1077 14.9621 71.6967 14.7273C71.2857 14.4924 70.9609 14.1525 70.7223 13.7074C70.4837 13.2623 70.3643 12.7235 70.3643 12.0909C70.3643 11.4564 70.4837 10.9167 70.7223 10.4716C70.9609 10.0265 71.2857 9.6875 71.6967 9.45455C72.1077 9.2197 72.5717 9.10227 73.0888 9.10227C73.602 9.10227 74.0642 9.2197 74.4751 9.45455C74.888 9.6875 75.2138 10.0265 75.4524 10.4716C75.6929 10.9167 75.8132 11.4564 75.8132 12.0909ZM74.5661 12.0909C74.5661 11.6799 74.5045 11.3333 74.3814 11.0511C74.2602 10.7689 74.0888 10.5549 73.8672 10.4091C73.6456 10.2633 73.3861 10.1903 73.0888 10.1903C72.7914 10.1903 72.532 10.2633 72.3104 10.4091C72.0888 10.5549 71.9164 10.7689 71.7933 11.0511C71.6721 11.3333 71.6115 11.6799 71.6115 12.0909C71.6115 12.5019 71.6721 12.8485 71.7933 13.1307C71.9164 13.4129 72.0888 13.6269 72.3104 13.7727C72.532 13.9186 72.7914 13.9915 73.0888 13.9915C73.3861 13.9915 73.6456 13.9186 73.8672 13.7727C74.0888 13.6269 74.2602 13.4129 74.3814 13.1307C74.5045 12.8485 74.5661 12.5019 74.5661 12.0909ZM76.7244 15V9.18182H77.9545V13.9858H80.4489V15H76.7244ZM81.2635 9.18182H82.7805L84.3828 13.0909H84.451L86.0533 9.18182H87.5703V15H86.3771V11.2131H86.3288L84.8232 14.9716H84.0107L82.505 11.1989H82.4567V15H81.2635V9.18182ZM88.5838 15V9.18182H92.5043V10.196H89.8139V11.5824H92.3026V12.5966H89.8139V13.9858H92.5156V15H88.5838Z" fill="white"/>
<path d="M42.9482 28V17.0909H45.2546V21.9009H45.3984L49.3242 17.0909H52.0888L48.0405 21.9755L52.1367 28H49.3775L46.3892 23.5149L45.2546 24.8999V28H42.9482ZM53.29 28V17.0909H60.6408V18.9925H55.5964V21.592H60.2626V23.4936H55.5964V26.0984H60.6621V28H53.29ZM71.5992 17.0909V28H69.607L64.8609 21.1339H64.781V28H62.4745V17.0909H64.4987L69.2075 23.9517H69.3034V17.0909H71.5992ZM72.8656 17.0909H75.449L77.9366 21.7891H78.0431L80.5307 17.0909H83.1142L79.1351 24.1435V28H76.8446V24.1435L72.8656 17.0909ZM85.141 28H82.6694L86.4354 17.0909H89.4077L93.1683 28H90.6967L87.9641 19.5838H87.8789L85.141 28ZM84.9865 23.712H90.8246V25.5124H84.9865V23.712Z" fill="white"/>
<g filter="url(#filter1_d_20521_400)">
<circle cx="19" cy="19" r="18" fill="#111322"/>
</g>
<circle cx="19" cy="19" r="16.75" fill="#454545" stroke="white" stroke-width="0.5"/>
<mask id="mask0_20521_400" style="mask-type:alpha" maskUnits="userSpaceOnUse" x="3" y="3" width="32" height="32">
<circle cx="19" cy="19" r="16" fill="#D9D9D9"/>
</mask>
<g mask="url(#mask0_20521_400)">
<path d="M-6.06665 3H43.5333V35.5333H-6.06665V3Z" fill="white"/>
<path d="M-6.06665 3H43.5333V12.76H-6.06665V3Z" fill="black"/>
<path d="M-6.06665 25.7732H43.5333V35.5333H-6.06665V25.7732Z" fill="#006600"/>
<path d="M12.8271 28.925L13.185 29.1284L22.8391 12.6768C23.4037 12.528 23.7137 11.9997 24.0237 11.4714C24.2304 11.1192 25.057 9.71048 25.4153 7.88C23.9831 9.10048 23.1565 10.5092 22.9498 10.8614C22.6398 11.3897 22.3298 11.918 22.4811 12.4735L12.8271 28.925Z" fill="black"/>
<path d="M12.8271 28.925L13.185 29.1284L22.8391 12.6768C23.4037 12.528 23.7137 11.9997 24.0237 11.4714C24.2304 11.1192 25.057 9.71048 25.4153 7.88C23.9831 9.10048 23.1565 10.5092 22.9498 10.8614C22.6398 11.3897 22.3298 11.918 22.4811 12.4735L12.8271 28.925Z" fill="white"/>
<path d="M24.6396 28.925L24.2817 29.1284L14.6276 12.6768C14.063 12.528 13.753 11.9997 13.443 11.4714C13.2363 11.1192 12.4097 9.71048 12.0514 7.88C13.4835 9.10048 14.3102 10.5092 14.5169 10.8614C14.8269 11.3897 15.1369 11.918 14.9856 12.4735L24.6396 28.925Z" fill="black"/>
<path d="M24.6396 28.925L24.2817 29.1284L14.6276 12.6768C14.063 12.528 13.753 11.9997 13.443 11.4714C13.2363 11.1192 12.4097 9.71048 12.0514 7.88C13.4835 9.10048 14.3102 10.5092 14.5169 10.8614C14.8269 11.3897 15.1369 11.918 14.9856 12.4735L24.6396 28.925Z" fill="white"/>
<path d="M-6.06665 14.3866V24.1466H14.8067C15.4267 25.7732 17.4933 29.0266 18.7333 29.0266C19.9733 29.0266 22.04 25.7732 22.66 24.1466H43.5333V14.3866H22.66C22.04 12.7599 19.9733 9.50656 18.7333 9.50656C17.4933 9.50656 15.4267 12.7599 14.8067 14.3866H-6.06665Z" fill="#BB0000"/>
<path d="M22.66 24.1466C23.28 22.5199 23.6932 20.8935 23.6932 19.2669C23.6932 17.6402 23.28 16.0132 22.66 14.3866C22.04 16.0132 21.6265 17.6402 21.6265 19.2669C21.6265 20.8935 22.04 22.5199 22.66 24.1466Z" fill="black"/>
<path d="M14.8067 24.1466C14.1867 22.5199 13.7735 20.8935 13.7735 19.2669C13.7735 17.6402 14.1867 16.0132 14.8067 14.3866C15.4267 16.0132 15.8402 17.6402 15.8402 19.2669C15.8402 20.8935 15.4267 22.5199 14.8067 24.1466Z" fill="black"/>
<path d="M18.7332 20.4868C19.1897 20.4868 19.5598 19.9405 19.5598 19.2668C19.5598 18.593 19.1897 18.0468 18.7332 18.0468C18.2766 18.0468 17.9065 18.593 17.9065 19.2668C17.9065 19.9405 18.2766 20.4868 18.7332 20.4868Z" fill="white"/>
<path d="M18.9398 20.4563C18.9398 20.4563 19.7665 22.0829 19.7665 24.7263C19.7665 27.3696 18.9398 28.9963 18.9398 28.9963V20.4563Z" fill="white"/>
<path d="M18.5265 18.0773C18.5265 18.0773 17.6998 16.4506 17.6998 13.8073C17.6998 11.1639 18.5265 9.53725 18.5265 9.53725V18.0773Z" fill="white"/>
<path d="M18.5265 20.4563C18.5265 20.4563 17.6998 22.0829 17.6998 24.7263C17.6998 27.3696 18.5265 28.9963 18.5265 28.9963V20.4563Z" fill="white"/>
<path d="M18.9398 18.0773C18.9398 18.0773 19.7665 16.4506 19.7665 13.8073C19.7665 11.1639 18.9398 9.53725 18.9398 9.53725V18.0773Z" fill="white"/>
</g>
<defs>
<filter id="filter0_d_20521_400" x="18" y="5" width="86" height="30" filterUnits="userSpaceOnUse" color-interpolation-filters="sRGB">
<feFlood flood-opacity="0" result="BackgroundImageFix"/>
<feColorMatrix in="SourceAlpha" type="matrix" values="0 0 0 0 0 0 0 0 0 0 0 0 0 0 0 0 0 0 127 0" result="hardAlpha"/>
<feOffset dx="1" dy="1"/>
<feGaussianBlur stdDeviation="1"/>
<feColorMatrix type="matrix" values="0 0 0 0 0 0 0 0 0 0 0 0 0 0 0 0 0 0 0.3 0"/>
<feBlend mode="normal" in2="BackgroundImageFix" result="effect1_dropShadow_20521_400"/>
<feBlend mode="normal" in="SourceGraphic" in2="effect1_dropShadow_20521_400" result="shape"/>
</filter>
<filter id="filter1_d_20521_400" x="0" y="0" width="40" height="40" filterUnits="userSpaceOnUse" color-interpolation-filters="sRGB">
<feFlood flood-opacity="0" result="BackgroundImageFix"/>
<feColorMatrix in="SourceAlpha" type="matrix" values="0 0 0 0 0 0 0 0 0 0 0 0 0 0 0 0 0 0 127 0" result="hardAlpha"/>
<feOffset dx="1" dy="1"/>
<feGaussianBlur stdDeviation="1"/>
<feColorMatrix type="matrix" values="0 0 0 0 0 0 0 0 0 0 0 0 0 0 0 0 0 0 0.3 0"/>
<feBlend mode="normal" in2="BackgroundImageFix" result="effect1_dropShadow_20521_400"/>
<feBlend mode="normal" in="SourceGraphic" in2="effect1_dropShadow_20521_400" result="shape"/>
</filter>
</defs>
</svg>
