<svg width="101" height="100" viewBox="0 0 101 100" fill="none" xmlns="http://www.w3.org/2000/svg">
<mask id="path-1-outside-1_20529_5911" maskUnits="userSpaceOnUse" x="2" y="30" width="99" height="37" fill="black">
<rect fill="white" x="2" y="30" width="99" height="37"/>
<path d="M3.29096 66V31.0909H17.0637C19.7001 31.0909 21.9501 31.5625 23.8137 32.5057C25.6887 33.4375 27.1148 34.7614 28.0921 36.4773C29.0807 38.1818 29.5751 40.1875 29.5751 42.4943C29.5751 44.8125 29.0751 46.8068 28.0751 48.4773C27.0751 50.1364 25.6262 51.4091 23.7285 52.2955C21.8421 53.1818 19.558 53.625 16.8762 53.625H7.6546V47.6932H15.683C17.0921 47.6932 18.2626 47.5 19.1944 47.1136C20.1262 46.7273 20.8194 46.1477 21.2739 45.375C21.7398 44.6023 21.9728 43.642 21.9728 42.4943C21.9728 41.3352 21.7398 40.358 21.2739 39.5625C20.8194 38.767 20.1205 38.1648 19.1773 37.7557C18.2455 37.3352 17.0694 37.125 15.6489 37.125H10.6716V66H3.29096ZM22.1432 50.1136L30.8194 66H22.6716L14.183 50.1136H22.1432ZM33.831 66V31.0909H41.2116V45.4943H56.1946V31.0909H63.5582V66H56.1946V51.5795H41.2116V66H33.831ZM68.6835 66V31.0909H76.0641V46.483H76.5244L89.0869 31.0909H97.9335L84.9789 46.7216L98.0869 66H89.2573L79.6948 51.6477L76.0641 56.0795V66H68.6835Z"/>
</mask>
<path d="M3.29096 66V31.0909H17.0637C19.7001 31.0909 21.9501 31.5625 23.8137 32.5057C25.6887 33.4375 27.1148 34.7614 28.0921 36.4773C29.0807 38.1818 29.5751 40.1875 29.5751 42.4943C29.5751 44.8125 29.0751 46.8068 28.0751 48.4773C27.0751 50.1364 25.6262 51.4091 23.7285 52.2955C21.8421 53.1818 19.558 53.625 16.8762 53.625H7.6546V47.6932H15.683C17.0921 47.6932 18.2626 47.5 19.1944 47.1136C20.1262 46.7273 20.8194 46.1477 21.2739 45.375C21.7398 44.6023 21.9728 43.642 21.9728 42.4943C21.9728 41.3352 21.7398 40.358 21.2739 39.5625C20.8194 38.767 20.1205 38.1648 19.1773 37.7557C18.2455 37.3352 17.0694 37.125 15.6489 37.125H10.6716V66H3.29096ZM22.1432 50.1136L30.8194 66H22.6716L14.183 50.1136H22.1432ZM33.831 66V31.0909H41.2116V45.4943H56.1946V31.0909H63.5582V66H56.1946V51.5795H41.2116V66H33.831ZM68.6835 66V31.0909H76.0641V46.483H76.5244L89.0869 31.0909H97.9335L84.9789 46.7216L98.0869 66H89.2573L79.6948 51.6477L76.0641 56.0795V66H68.6835Z" fill="#FFDDDD"/>
<path d="M3.29097 66H2.29097V67H3.29097V66ZM3.29097 31.0909V30.0909H2.29097V31.0909H3.29097ZM23.8137 32.5057L23.3621 33.3979L23.3687 33.4012L23.8137 32.5057ZM28.0921 36.4773L27.2231 36.9722L27.2271 36.979L28.0921 36.4773ZM28.0751 48.4773L28.9315 48.9935L28.9331 48.9909L28.0751 48.4773ZM23.7285 52.2955L23.3053 51.3894L23.3032 51.3904L23.7285 52.2955ZM7.6546 53.625H6.6546V54.625H7.6546V53.625ZM7.6546 47.6932V46.6932H6.6546V47.6932H7.6546ZM19.1944 47.1136L19.5774 48.0374V48.0374L19.1944 47.1136ZM21.2739 45.375L20.4175 44.8586L20.412 44.868L21.2739 45.375ZM21.2739 39.5625L20.4056 40.0587L20.411 40.0679L21.2739 39.5625ZM19.1773 37.7557L18.766 38.6672L18.7727 38.6702L18.7794 38.6731L19.1773 37.7557ZM10.6716 37.125V36.125H9.67165V37.125H10.6716ZM10.6716 66V67H11.6716V66H10.6716ZM22.1432 50.1136L23.0209 49.6343L22.7365 49.1136H22.1432V50.1136ZM30.8194 66V67H32.5049L31.697 65.5207L30.8194 66ZM22.6716 66L21.7897 66.4713L22.0722 67H22.6716V66ZM14.183 50.1136V49.1136H12.5149L13.301 50.5849L14.183 50.1136ZM3.29097 66H4.29097V31.0909H3.29097H2.29097V66H3.29097ZM3.29097 31.0909V32.0909H17.0637V31.0909V30.0909H3.29097V31.0909ZM17.0637 31.0909V32.0909C19.5833 32.0909 21.6703 32.5417 23.3621 33.3979L23.8137 32.5057L24.2653 31.6134C22.2298 30.5833 19.8169 30.0909 17.0637 30.0909V31.0909ZM23.8137 32.5057L23.3687 33.4012C25.077 34.2502 26.3503 35.4396 27.2232 36.9722L28.0921 36.4773L28.9611 35.9824C27.8794 34.0831 26.3004 32.6248 24.2587 31.6102L23.8137 32.5057ZM28.0921 36.4773L27.2271 36.979C28.1132 38.5068 28.5751 40.3334 28.5751 42.4943H29.5751H30.5751C30.5751 40.0416 30.0483 37.8568 28.9571 35.9756L28.0921 36.4773ZM29.5751 42.4943H28.5751C28.5751 44.6663 28.1078 46.4757 27.2171 47.9636L28.0751 48.4773L28.9331 48.9909C30.0423 47.1379 30.5751 44.9587 30.5751 42.4943H29.5751ZM28.0751 48.4773L27.2186 47.9611C26.3295 49.4361 25.0384 50.5799 23.3053 51.3894L23.7285 52.2955L24.1516 53.2015C26.214 52.2382 27.8206 50.8366 28.9315 48.9935L28.0751 48.4773ZM23.7285 52.2955L23.3032 51.3904C21.5823 52.199 19.4516 52.625 16.8762 52.625V53.625V54.625C19.6644 54.625 22.1019 54.1646 24.1537 53.2005L23.7285 52.2955ZM16.8762 53.625V52.625H7.6546V53.625V54.625H16.8762V53.625ZM7.6546 53.625H8.6546V47.6932H7.6546H6.6546V53.625H7.6546ZM7.6546 47.6932V48.6932H15.683V47.6932V46.6932H7.6546V47.6932ZM15.683 47.6932V48.6932C17.175 48.6932 18.4862 48.4898 19.5774 48.0374L19.1944 47.1136L18.8114 46.1899C18.0389 46.5102 17.0092 46.6932 15.683 46.6932V47.6932ZM19.1944 47.1136L19.5774 48.0374C20.6835 47.5787 21.5575 46.8652 22.1359 45.882L21.2739 45.375L20.412 44.868C20.0812 45.4303 19.5689 45.8758 18.8114 46.1899L19.1944 47.1136ZM21.2739 45.375L22.1303 45.8913C22.7125 44.9257 22.9728 43.7752 22.9728 42.4943H21.9728H20.9728C20.9728 43.5089 20.7671 44.2788 20.4175 44.8587L21.2739 45.375ZM21.9728 42.4943H22.9728C22.9728 41.2027 22.7129 40.0406 22.1368 39.0571L21.2739 39.5625L20.411 40.0679C20.7668 40.6753 20.9728 41.4677 20.9728 42.4943H21.9728ZM21.2739 39.5625L22.1422 39.0664C21.5675 38.0607 20.6912 37.3223 19.5752 36.8383L19.1773 37.7557L18.7794 38.6731C19.5498 39.0073 20.0713 39.4734 20.4057 40.0586L21.2739 39.5625ZM19.1773 37.7557L19.5886 36.8442C18.4875 36.3473 17.1595 36.125 15.6489 36.125V37.125V38.125C16.9793 38.125 18.0035 38.3231 18.766 38.6672L19.1773 37.7557ZM15.6489 37.125V36.125H10.6716V37.125V38.125H15.6489V37.125ZM10.6716 37.125H9.67165V66H10.6716H11.6716V37.125H10.6716ZM10.6716 66V65H3.29097V66V67H10.6716V66ZM22.1432 50.1136L21.2656 50.593L29.9417 66.4793L30.8194 66L31.697 65.5207L23.0209 49.6343L22.1432 50.1136ZM30.8194 66V65H22.6716V66V67H30.8194V66ZM22.6716 66L23.5536 65.5287L15.065 49.6424L14.183 50.1136L13.301 50.5849L21.7897 66.4713L22.6716 66ZM14.183 50.1136V51.1136H22.1432V50.1136V49.1136H14.183V50.1136ZM33.831 66H32.831V67H33.831V66ZM33.831 31.0909V30.0909H32.831V31.0909H33.831ZM41.2116 31.0909H42.2116V30.0909H41.2116V31.0909ZM41.2116 45.4943H40.2116V46.4943H41.2116V45.4943ZM56.1946 45.4943V46.4943H57.1946V45.4943H56.1946ZM56.1946 31.0909V30.0909H55.1946V31.0909H56.1946ZM63.5582 31.0909H64.5582V30.0909H63.5582V31.0909ZM63.5582 66V67H64.5582V66H63.5582ZM56.1946 66H55.1946V67H56.1946V66ZM56.1946 51.5795H57.1946V50.5795H56.1946V51.5795ZM41.2116 51.5795V50.5795H40.2116V51.5795H41.2116ZM41.2116 66V67H42.2116V66H41.2116ZM33.831 66H34.831V31.0909H33.831H32.831V66H33.831ZM33.831 31.0909V32.0909H41.2116V31.0909V30.0909H33.831V31.0909ZM41.2116 31.0909H40.2116V45.4943H41.2116H42.2116V31.0909H41.2116ZM41.2116 45.4943V46.4943H56.1946V45.4943V44.4943H41.2116V45.4943ZM56.1946 45.4943H57.1946V31.0909H56.1946H55.1946V45.4943H56.1946ZM56.1946 31.0909V32.0909H63.5582V31.0909V30.0909H56.1946V31.0909ZM63.5582 31.0909H62.5582V66H63.5582H64.5582V31.0909H63.5582ZM63.5582 66V65H56.1946V66V67H63.5582V66ZM56.1946 66H57.1946V51.5795H56.1946H55.1946V66H56.1946ZM56.1946 51.5795V50.5795H41.2116V51.5795V52.5795H56.1946V51.5795ZM41.2116 51.5795H40.2116V66H41.2116H42.2116V51.5795H41.2116ZM41.2116 66V65H33.831V66V67H41.2116V66ZM68.6835 66H67.6835V67H68.6835V66ZM68.6835 31.0909V30.0909H67.6835V31.0909H68.6835ZM76.0641 31.0909H77.0641V30.0909H76.0641V31.0909ZM76.0641 46.483H75.0641V47.483H76.0641V46.483ZM76.5244 46.483V47.483H76.999L77.2991 47.1153L76.5244 46.483ZM89.0869 31.0909V30.0909H88.6123L88.3122 30.4586L89.0869 31.0909ZM97.9335 31.0909L98.7034 31.729L100.061 30.0909H97.9335V31.0909ZM84.9789 46.7216L84.209 46.0835L83.7293 46.6622L84.152 47.2839L84.9789 46.7216ZM98.0869 66V67H99.9761L98.9138 65.4377L98.0869 66ZM89.2573 66L88.4251 66.5545L88.722 67H89.2573V66ZM79.6948 51.6477L80.527 51.0933L79.7777 49.9686L78.9213 51.014L79.6948 51.6477ZM76.0641 56.0795L75.2906 55.4458L75.0641 55.7222V56.0795H76.0641ZM76.0641 66V67H77.0641V66H76.0641ZM68.6835 66H69.6835V31.0909H68.6835H67.6835V66H68.6835ZM68.6835 31.0909V32.0909H76.0641V31.0909V30.0909H68.6835V31.0909ZM76.0641 31.0909H75.0641V46.483H76.0641H77.0641V31.0909H76.0641ZM76.0641 46.483V47.483H76.5244V46.483V45.483H76.0641V46.483ZM76.5244 46.483L77.2991 47.1153L89.8616 31.7232L89.0869 31.0909L88.3122 30.4586L75.7497 45.8507L76.5244 46.483ZM89.0869 31.0909V32.0909H97.9335V31.0909V30.0909H89.0869V31.0909ZM97.9335 31.0909L97.1635 30.4528L84.209 46.0835L84.9789 46.7216L85.7489 47.3597L98.7034 31.729L97.9335 31.0909ZM84.9789 46.7216L84.152 47.2839L97.2599 66.5623L98.0869 66L98.9138 65.4377L85.8059 46.1593L84.9789 46.7216ZM98.0869 66V65H89.2573V66V67H98.0869V66ZM89.2573 66L90.0895 65.4455L80.527 51.0933L79.6948 51.6477L78.8626 52.2022L88.4251 66.5545L89.2573 66ZM79.6948 51.6477L78.9213 51.014L75.2906 55.4458L76.0641 56.0795L76.8377 56.7133L80.4684 52.2815L79.6948 51.6477ZM76.0641 56.0795H75.0641V66H76.0641H77.0641V56.0795H76.0641ZM76.0641 66V65H68.6835V66V67H76.0641V66Z" fill="#FFDDDD" mask="url(#path-1-outside-1_20529_5911)"/>
<path d="M0 12C0 5.37258 5.37258 0 12 0H88C94.6274 0 100 5.37258 100 12V88C100 94.6274 94.6274 100 88 100H12C5.37258 100 0 94.6274 0 88V12Z" fill="#252525"/>
<mask id="mask0_20529_5911" style="mask-type:alpha" maskUnits="userSpaceOnUse" x="11" y="2" width="82" height="96">
<path d="M11.8398 98V2H32.1367V44.3281H33.4023L67.9492 2H92.2773L56.6523 44.9844L92.6992 98H68.418L42.1211 58.5312L32.1367 70.7187V98H11.8398Z" fill="white"/>
</mask>
<g mask="url(#mask0_20529_5911)">
<path d="M-35 0H118V100H-35V0Z" fill="white"/>
<path d="M-35 0H118V30H-35V0Z" fill="black"/>
<path d="M-35 69.9997H118V100H-35V69.9997Z" fill="#006600"/>
<path d="M23.2811 79.6876L24.3853 80.3126L54.1648 29.7443C55.9065 29.2867 56.8627 27.6629 57.819 26.0391C58.4565 24.9566 61.0065 20.6265 62.1115 15C57.6939 18.7515 55.1439 23.0816 54.5064 24.1641C53.5502 25.7879 52.5939 27.4117 53.0606 29.1193L23.2811 79.6876Z" fill="black"/>
<path d="M23.2811 79.6876L24.3853 80.3126L54.1648 29.7443C55.9065 29.2867 56.8627 27.6629 57.819 26.0391C58.4565 24.9566 61.0065 20.6265 62.1115 15C57.6939 18.7515 55.1439 23.0816 54.5064 24.1641C53.5502 25.7879 52.5939 27.4117 53.0606 29.1193L23.2811 79.6876Z" fill="white"/>
<path d="M59.7189 79.6876L58.6147 80.3126L28.8352 29.7443C27.0935 29.2867 26.1373 27.6629 25.181 26.0391C24.5435 24.9566 21.9935 20.6265 20.8885 15C25.3061 18.7515 27.8561 23.0816 28.4936 24.1641C29.4498 25.7879 30.4061 27.4117 29.9394 29.1193L59.7189 79.6876Z" fill="black"/>
<path d="M59.7189 79.6876L58.6147 80.3126L28.8352 29.7443C27.0935 29.2867 26.1373 27.6629 25.181 26.0391C24.5435 24.9566 21.9935 20.6265 20.8885 15C25.3061 18.7515 27.8561 23.0816 28.4936 24.1641C29.4498 25.7879 30.4061 27.4117 29.9394 29.1193L59.7189 79.6876Z" fill="white"/>
<path d="M-35 34.9997V64.9997H29.3875C31.3 69.9997 37.675 79.9997 41.5 79.9997C45.325 79.9997 51.7 69.9997 53.6125 64.9997H118V34.9997H53.6125C51.7 29.9997 45.325 19.9997 41.5 19.9997C37.675 19.9997 31.3 29.9997 29.3875 34.9997H-35Z" fill="#BB0000"/>
<path d="M53.6125 64.9997C55.525 59.9997 56.7995 55.0007 56.7995 50.0007C56.7995 45.0007 55.525 39.9997 53.6125 34.9997C51.7 39.9997 50.4245 45.0007 50.4245 50.0007C50.4245 55.0007 51.7 59.9997 53.6125 64.9997Z" fill="black"/>
<path d="M29.3875 64.9997C27.475 59.9997 26.2004 55.0007 26.2004 50.0007C26.2004 45.0007 27.475 39.9997 29.3875 34.9997C31.3 39.9997 32.5754 45.0007 32.5754 50.0007C32.5754 55.0007 31.3 59.9997 29.3875 64.9997Z" fill="black"/>
<path d="M41.4994 53.7503C42.9078 53.7503 44.0494 52.0713 44.0494 50.0003C44.0494 47.9292 42.9078 46.2503 41.4994 46.2503C40.0911 46.2503 38.9494 47.9292 38.9494 50.0003C38.9494 52.0713 40.0911 53.7503 41.4994 53.7503Z" fill="white"/>
<path d="M42.1369 53.6565C42.1369 53.6565 44.6869 58.6565 44.6869 66.7815C44.6869 74.9065 42.1369 79.9065 42.1369 79.9065V53.6565Z" fill="white"/>
<path d="M40.8619 46.344C40.8619 46.344 38.3119 41.344 38.3119 33.219C38.3119 25.094 40.8619 20.094 40.8619 20.094V46.344Z" fill="white"/>
<path d="M40.8619 53.6565C40.8619 53.6565 38.3119 58.6565 38.3119 66.7815C38.3119 74.9065 40.8619 79.9065 40.8619 79.9065V53.6565Z" fill="white"/>
<path d="M42.1369 46.344C42.1369 46.344 44.6869 41.344 44.6869 33.219C44.6869 25.094 42.1369 20.094 42.1369 20.094V46.344Z" fill="white"/>
</g>
</svg>
